<svg id="Capa_1" enable-background="new 0 0 512 512" height="512" viewBox="0 0 512 512" width="512" xmlns="http://www.w3.org/2000/svg"><g><g><path d="m129.56 455.88 4.94 26.94-4.94 21.68h-48.61c0-13.42 5.44-25.58 14.24-34.38 3.6-3.61 7.78-6.65 12.37-8.98 6.61-3.37 14.08-5.26 22-5.26z" fill="#ffcebf"/><path d="m134.5 482.82-4.94 21.68h-22v-43.36c6.61-3.37 14.08-5.26 22-5.26z" fill="#ffb09e"/><path d="m382.44 428.012v76.488h-252.88v-76.49l126.44-8.91 118.558 8.91c4.353 0 7.882.002 7.882.002z" fill="#ffcebf"/><path d="m382.44 428.01v76.49h-27v-68.61c0-4.35-3.53-7.88-7.88-7.88z" fill="#ffb09e"/><path d="m424.83 412.81v91.69h-42.39v-76.488c0-.001-.001-.002-.002-.002h-261.668c-37.452 0-68.549-29.962-68.759-67.413-.217-38.786 31.445-68.257 67.689-68.257 6.58 0 13.31.97 20.02 3.03l69.32 21.27c12.78 3.42 25.81 5.84 38.96 7.24l91.96 9.82 15.23 1.63c39.6 4.24 69.64 37.65 69.64 77.48z" fill="#87523e"/><path d="m424.83 412.81v91.69h-29.34v-91.69c0-34.41-23.57-67.91-55.53-79.11l15.23 1.63c39.6 4.24 69.64 37.65 69.64 77.48z" fill="#7c4b37"/><path d="m382.435 504.499h48.618c0-26.851-21.767-48.618-48.618-48.618l-5.685 26.869z" fill="#ffb09e"/><path d="m271.15 22.65v336.89c0 8.37-6.78 15.15-15.15 15.15-2.76 0-5.35-.74-7.57-2.03-4.54-2.62-7.58-7.51-7.58-13.12v-336.89c0-5.61 3.04-10.5 7.58-13.11 2.22-1.3 4.81-2.04 7.57-2.04 4.18 0 7.97 1.7 10.71 4.44 2.75 2.74 4.44 6.52 4.44 10.71z" fill="#6ed5a1"/><path d="m271.15 22.65v336.89c0 8.37-6.78 15.15-15.15 15.15-2.76 0-5.35-.74-7.57-2.03 4.53-2.62 7.57-7.51 7.57-13.12v-336.89c0-4.19-1.7-7.97-4.44-10.71-.93-.93-1.98-1.74-3.13-2.4 2.22-1.3 4.81-2.04 7.57-2.04 4.18 0 7.97 1.7 10.71 4.44 2.75 2.74 4.44 6.52 4.44 10.71z" fill="#46cc8d"/><path d="m388.36 139.69c0 7.94-3.03 15.89-9.09 21.95l-20.29 20.28c-.5.51-1.02.99-1.55 1.45-10.28 8.98-25.05 10.05-36.4 3.21-2.13-1.28-4.13-2.83-5.96-4.66s-3.38-3.83-4.65-5.95c-2.96-4.9-4.44-10.45-4.44-16 0-7.28 2.54-14.55 7.62-20.38.47-.54.96-1.07 1.47-1.58l20.3-20.28c10.28-10.3 26.01-11.85 37.95-4.65 2.12 1.27 4.12 2.82 5.95 4.65s3.38 3.83 4.65 5.95c2.96 4.9 4.44 10.45 4.44 16.01z" fill="#6ed5a1"/><path d="m388.36 139.69c0 7.94-3.03 15.89-9.09 21.95l-20.29 20.28c-.5.51-1.02.99-1.55 1.45-8.7 7.6-20.62 9.53-30.95 5.8 3.53-1.27 6.87-3.21 9.84-5.8.53-.46 1.05-.94 1.55-1.45l20.29-20.28c6.06-6.06 9.09-14.01 9.09-21.95 0-5.56-1.48-11.11-4.44-16.01-1.27-2.12-2.82-4.12-4.65-5.95s-3.83-3.38-5.95-4.65c-1.75-1.05-3.57-1.92-5.45-2.59 8.68-3.15 18.49-2.28 26.56 2.59 2.12 1.27 4.12 2.82 5.95 4.65s3.38 3.83 4.65 5.95c2.96 4.9 4.44 10.45 4.44 16.01z" fill="#46cc8d"/><path d="m421.96 256.03c0 10.3-3.93 20.59-11.79 28.45l-26.66 26.66-2.31 2.31c-13.9 13.9-35.43 15.5-51.09 4.8-2.05-1.39-3.99-2.99-5.8-4.8s-3.42-3.76-4.81-5.8c-4.64-6.8-6.97-14.73-6.97-22.65 0-10.29 3.93-20.58 11.78-28.44l2.3-2.31c.11-.11.23-.22.34-.33l26.33-26.34c13.9-13.9 35.44-15.5 51.1-4.81 2.04 1.4 3.98 3 5.79 4.81 1.82 1.82 3.42 3.76 4.81 5.81 4.66 6.81 6.98 14.72 6.98 22.64z" fill="#6ed5a1"/><path d="m421.96 256.03c0 10.3-3.93 20.59-11.79 28.45l-26.66 26.66-2.31 2.31c-11.38 11.38-27.88 14.52-42.08 9.4 5.4-1.94 10.47-5.08 14.8-9.4l2.31-2.31 26.65-26.66c7.87-7.86 11.8-18.15 11.8-28.45 0-7.92-2.32-15.83-6.99-22.64-1.38-2.05-2.99-3.99-4.81-5.81-1.81-1.81-3.75-3.41-5.78-4.81-2.84-1.94-5.87-3.47-9.02-4.6 11.94-4.29 25.52-2.76 36.3 4.6 2.04 1.4 3.98 3 5.79 4.81 1.82 1.82 3.42 3.76 4.81 5.81 4.66 6.81 6.98 14.72 6.98 22.64z" fill="#46cc8d"/><path d="m341.586 56.728-10.05 10.058c-.118.118-.237.23-.355.333-7.665 7.303-19.797 7.184-27.322-.333l-1.755-1.755c-7.525-7.525-7.643-19.656-.333-27.322.104-.118.215-.237.333-.355l10.058-10.05c7.643-7.643 20.034-7.643 27.677 0l1.748 1.748c7.642 7.642 7.642 20.033-.001 27.676z" fill="#6ed5a1"/><path d="m341.59 56.73-10.05 10.06c-.12.11-.24.23-.36.33-5.87 5.6-14.38 6.83-21.42 3.71 2-.88 3.88-2.12 5.55-3.71.12-.1.24-.22.36-.33l10.05-10.06c7.64-7.65 7.64-20.04 0-27.68l-1.75-1.75c-1.75-1.75-3.76-3.1-5.9-4.05 7.18-3.19 15.89-1.83 21.77 4.05l1.75 1.75c7.64 7.64 7.64 20.03 0 27.68z" fill="#46cc8d"/><path d="m206.02 159.97c0 5.55-1.48 11.1-4.44 16-1.27 2.12-2.82 4.12-4.65 5.95s-3.84 3.38-5.96 4.66c-11.94 7.19-27.66 5.64-37.95-4.66l-20.26-20.25-.03-.03c-6.06-6.06-9.09-14.01-9.09-21.95 0-5.56 1.48-11.11 4.44-16.01 1.27-2.12 2.82-4.12 4.65-5.95s3.83-3.38 5.95-4.65c11.94-7.2 27.67-5.65 37.95 4.65l.04.03c.07.06.12.12.18.18l20.08 20.07c6.06 6.06 9.09 14.01 9.09 21.96z" fill="#6ed5a1"/><path d="m206.02 159.97c0 7.95-3.03 15.89-9.09 21.95-12.13 12.13-31.79 12.13-43.91 0l-20.26-20.25c12.13 12.12 31.79 12.12 43.91 0 6.06-6.07 9.09-14.01 9.09-21.96 0-7.86-2.97-15.73-8.91-21.77l20.08 20.07c6.06 6.06 9.09 14.01 9.09 21.96z" fill="#46cc8d"/><path d="m199.47 285c0 7.92-2.33 15.85-6.97 22.65-1.39 2.04-3 3.99-4.81 5.8s-3.75 3.41-5.8 4.8c-15.66 10.7-37.19 9.1-51.09-4.8l-25.25-25.25-3.72-3.72c-7.86-7.86-11.79-18.15-11.79-28.45 0-7.92 2.32-15.83 6.98-22.64 1.39-2.05 2.99-3.99 4.81-5.81 1.81-1.81 3.75-3.41 5.8-4.8 15.38-10.51 36.44-9.15 50.35 4.07l4.46 4.46 25.25 25.25c7.85 7.86 11.78 18.15 11.78 28.44z" fill="#6ed5a1"/><path d="m199.47 285c0 10.3-3.93 20.6-11.78 28.45-15.71 15.71-41.18 15.71-56.89 0l-25.25-25.25c15.71 15.71 41.18 15.71 56.89 0 7.86-7.86 11.78-18.15 11.78-28.44 0-9.98-3.68-19.96-11.05-27.71l24.52 24.51c7.85 7.86 11.78 18.15 11.78 28.44z" fill="#46cc8d"/><path d="m209.896 65.03-1.755 1.755c-7.643 7.636-20.034 7.636-27.677 0l-10.05-10.058c-.156-.156-.304-.311-.444-.467-7.199-7.673-7.043-19.723.444-27.21l1.748-1.748c7.488-7.488 19.538-7.643 27.211-.444.156.141.311.289.467.444l10.058 10.05c7.641 7.644 7.641 20.035-.002 27.678z" fill="#6ed5a1"/><path d="m209.9 65.03-1.76 1.76c-7.64 7.63-20.03 7.63-27.68 0l-10.05-10.06c-.15-.16-.3-.31-.44-.47 7.68 7.04 19.62 6.85 27.06-.58l1.76-1.76c7.44-7.44 7.63-19.38.58-27.06.16.14.31.29.47.44l10.06 10.05c7.64 7.65 7.64 20.04 0 27.68z" fill="#46cc8d"/></g><g><path d="m478.019 497h-39.982c-.867-6.46-2.835-12.571-5.712-18.146v-66.042c0-39.511-26.748-73.101-63.967-82.686 6.753-2.329 12.945-6.172 18.145-11.372l28.975-28.974c18.61-18.61 18.61-48.89 0-67.5-18.61-18.609-48.89-18.609-67.5 0l-28.975 28.974c-18.609 18.61-18.609 48.89 0 67.5 2.236 2.236 4.655 4.221 7.223 5.944l-18.745-2.003c-4.118-.441-7.814 2.542-8.254 6.661s2.542 7.814 6.661 8.254l48.501 5.183c35.88 3.833 62.937 33.935 62.937 70.019v47.782c-7.736-6.161-17.126-10.319-27.39-11.697v-20.888c0-4.142-3.358-7.5-7.5-7.5h-262.616c-33.257 0-60.313-27.056-60.313-60.313 0-28.667 20.52-53.461 48.293-59.139l17.697 17.697c18.152 18.153 48.379 18.43 66.856.613 13.545 4.157 26.954 7.852 41 10.112v30.061c0 12.488 10.16 22.648 22.648 22.648s22.648-10.16 22.648-22.648v-336.892c-.001-12.488-10.161-22.648-22.649-22.648s-22.648 10.16-22.648 22.648v291.629c-10.745-1.836-21.145-4.508-31.54-7.698 9.061-17.91 6.13-40.379-8.816-55.325l-28.975-28.974c-18.609-18.61-48.89-18.61-67.5 0-18.306 18.306-18.591 47.895-.884 66.569-12.229 4.17-23.317 11.455-32.069 21.243-12.292 13.748-19.062 31.542-19.062 50.104 0 42.549 35.737 75.579 77.558 75.313v13.388c-24.953 3.35-44.753 23.15-48.102 48.103h-39.982c-4.142 0-7.5 3.358-7.5 7.5s3.358 7.5 7.5 7.5h444.039c4.142 0 7.5-3.358 7.5-7.5s-3.358-7.5-7.5-7.5zm-73.148-217.827-28.975 28.974c-6.182 6.182-14.401 9.586-23.143 9.586-6.184 0-12.102-1.711-17.227-4.896l74.028-74.027c7.808 12.617 6.254 29.427-4.683 40.363zm-75.261-17.313 28.975-28.974c6.38-6.38 14.762-9.571 23.143-9.571 5.984 0 11.964 1.635 17.22 4.888l-74.02 74.02c-7.809-12.617-6.254-29.426 4.682-40.363zm-81.258-239.212c0-4.217 3.431-7.648 7.648-7.648s7.648 3.431 7.648 7.648v336.892c0 4.217-3.431 7.648-7.648 7.648s-7.648-3.431-7.648-7.648zm-112.249 285.499-28.975-28.974c-10.936-10.936-12.491-27.746-4.683-40.363l74.028 74.027c-12.768 7.936-29.763 5.918-40.37-4.69zm17.312-75.261 28.975 28.974c10.936 10.936 12.491 27.746 4.683 40.363l-74.021-74.02c12.617-7.808 29.426-6.252 40.363 4.683zm-31.351 231.18v32.934h-32.932c3.084-16.674 16.259-29.849 32.932-32.934zm130.974 32.934 3.887-14.919c1.044-4.008-1.359-8.104-5.367-9.148-4.01-1.041-8.104 1.359-9.148 5.367l-4.872 18.7h-100.474v-41.119-20.372h237.871v36.158c0 4.142 3.358 7.5 7.5 7.5s7.5-3.358 7.5-7.5v-7.597c16.672 3.085 29.848 16.258 32.933 32.93z"/><path d="m309.773 132.71c-14.049 14.049-14.929 37.353-1.956 52.409 14.402 16.715 40.865 17.713 56.471 2.106l20.284-20.284c14.823-14.824 14.823-39.692 0-54.515-14.825-14.825-39.691-14.824-54.515 0zm64.193 23.624-20.284 20.284c-7.05 7.05-18.207 8.888-27.135 4.44l51.859-51.86c4.448 8.929 2.612 20.085-4.44 27.136zm-16.651-40.199c3.7 0 7.267.854 10.484 2.457l-51.859 51.86c-4.448-8.928-2.612-20.084 4.44-27.136l20.284-20.284c4.447-4.448 10.361-6.897 16.651-6.897z"/><path d="m298.552 72.085c10.432 10.432 27.844 10.439 38.283 0l10.054-10.054c25.068-25.068-14.973-65.091-40.033-40.033l-10.054 10.054c-11.618 11.619-9.523 29.191 1.75 40.033zm8.857-29.426 10.054-10.054c11.353-11.353 30.161 7.478 18.82 18.82l-10.054 10.054c-11.353 11.353-30.161-7.479-18.82-18.82z"/><path d="m147.712 187.225c14.845 14.845 39.668 14.847 54.515 0 12.463-12.463 14.899-31.747 5.923-46.894-2.112-3.563-6.712-4.741-10.275-2.629-3.563 2.111-4.741 6.712-2.629 10.275 4.153 7.009 4.294 15.467.809 22.468l-51.855-51.853c8.928-4.448 20.084-2.612 27.136 4.44 2.929 2.929 7.678 2.929 10.606 0 2.929-2.929 2.929-7.678 0-10.606-14.049-14.051-37.351-14.927-52.409-1.956-16.739 14.419-17.731 40.847-2.106 56.471zm10.606-10.606-20.284-20.284c-7.05-7.05-8.888-18.208-4.44-27.136l51.86 51.86c-8.928 4.448-20.084 2.612-27.136-4.44z"/><path d="m175.164 72.085c25.093 25.093 65.16-14.908 40.033-40.033l-10.054-10.054c-25.069-25.068-65.092 14.974-40.033 40.033zm.552-37.731c5.049-5.363 12.999-7.571 18.82-1.75l10.054 10.054c11.354 11.354-7.478 30.161-18.82 18.82l-10.054-10.054c-4.653-4.653-4.653-12.417 0-17.07z"/></g></g><script xmlns=""/></svg>